# xmcd CD database file
#
# Track frame offsets:
#	182
#	14997
#	28490
#	41767
#	51570
#	62867
#	73555
#	86480
#	98115
#	113240
#	124525
#	133640
#	143955
#	156790
#	171165
#	188897
#	202472
#	219230
#
# Disc length: 3099 seconds
#
# Revision: 0
# Processed by: cddbd v1.4PL0 Copyright (c) Steve Scherf et al.
# Submitted via: CDex 1.50beta9
#
DISCID=1c0c1912
DTITLE=NAT KING COLE - NAT KING COLE TRIO 1946-1947
DYEAR=1946
DGENRE=Jazz
TTITLE0=I'VE GOT THE WORLD ON A STRING
TTITLE1=ON THE SUNNY SIDE OF THE STREET
TTITLE2=HOW DEEP IS THE OCEAN
TTITLE3=SWINGIN' THE BLUE
TTITLE4=BUT SHE'S MY BUDDY'S CHICK
TTITLE5=I GOT RYTHM
TTITLE6=ONE O'CLOCK JUMP
TTITLE7=AFTER YOU GET WHAT YOU WANT YOU DON'T WANT IT
TTITLE8=SOMEBODY LOVES ME
TTITLE9=THIS WAY OUT
TTITLE10=WHAT CAN I SAY AFTER I SAY I'M SORRY
TTITLE11=HONEYSUCKLE ROSE
TTITLE12=TOO MARVELOUS FOR WORDS
TTITLE13=HOW DOES IT FEEL
TTITLE14=HOW HIGHT THE MOON
TTITLE15=ROUTE 66
TTITLE16=WHAT IS THE THING CALLED LOVE
TTITLE17=CONFESS
EXTD=YEAR: 1946
EXTT0=
EXTT1=
EXTT2=
EXTT3=
EXTT4=
EXTT5=
EXTT6=
EXTT7=
EXTT8=
EXTT9=
EXTT10=
EXTT11=
EXTT12=
EXTT13=
EXTT14=
EXTT15=
EXTT16=
EXTT17=
PLAYORDER=
